<svg width="10" height="10" viewBox="0 0 10 10" fill="none" xmlns="http://www.w3.org/2000/svg">
<path d="M3.24999 8.92707C3.11068 8.92713 2.97272 8.8997 2.84403 8.84636C2.71533 8.79303 2.59842 8.71482 2.49999 8.61624L0.232491 6.34957C0.115322 6.23236 0.0494995 6.07342 0.0494995 5.90769C0.0494995 5.74197 0.115322 5.58302 0.232491 5.46582C0.349696 5.34865 0.508638 5.28283 0.674366 5.28283C0.840094 5.28283 0.999036 5.34865 1.11624 5.46582L3.24999 7.59957L8.89499 1.95457C9.0122 1.8374 9.17114 1.77158 9.33687 1.77158C9.50259 1.77158 9.66154 1.8374 9.77874 1.95457C9.89591 2.07177 9.96173 2.23072 9.96173 2.39644C9.96173 2.56217 9.89591 2.72111 9.77874 2.83832L3.99999 8.61624C3.90156 8.71482 3.78465 8.79303 3.65596 8.84636C3.52726 8.8997 3.3893 8.92713 3.24999 8.92707Z" fill="white"/>
</svg>
