<svg width="20" height="20" viewBox="0 0 20 20" fill="none" xmlns="http://www.w3.org/2000/svg">
<g clip-path="url(#clip0_1_566)">
<path d="M18.7958 11.385L17.2125 5.68834C16.7484 4.01945 15.7398 2.55358 14.347 1.52373C12.9541 0.493884 11.257 -0.0408381 9.5254 0.00456195C7.79378 0.049962 6.12702 0.672879 4.79007 1.7743C3.45311 2.87571 2.52269 4.39243 2.14668 6.08334L0.920849 11.5958C0.785445 12.205 0.788575 12.8367 0.930009 13.4444C1.07144 14.0522 1.34757 14.6204 1.738 15.1071C2.12843 15.5939 2.6232 15.9867 3.18577 16.2566C3.74835 16.5266 4.36437 16.6667 4.98835 16.6667H5.91668C6.10794 17.6086 6.61896 18.4554 7.36313 19.0637C8.10731 19.6719 9.03889 20.0042 10 20.0042C10.9611 20.0042 11.8927 19.6719 12.6369 19.0637C13.3811 18.4554 13.8921 17.6086 14.0833 16.6667H14.7817C15.424 16.6667 16.0577 16.5183 16.6331 16.2329C17.2086 15.9475 17.7103 15.5329 18.099 15.0216C18.4878 14.5102 18.753 13.9159 18.874 13.285C18.995 12.6542 18.9686 12.0039 18.7967 11.385H18.7958ZM10 18.3333C9.4848 18.3312 8.98282 18.1699 8.56277 17.8716C8.14271 17.5733 7.82508 17.1524 7.65335 16.6667H12.3467C12.1749 17.1524 11.8573 17.5733 11.4373 17.8716C11.0172 18.1699 10.5152 18.3312 10 18.3333ZM16.7717 14.0125C16.5395 14.3206 16.2386 14.5702 15.893 14.7416C15.5474 14.9131 15.1666 15.0015 14.7808 15H4.98835C4.614 14.9999 4.24445 14.9158 3.90697 14.7538C3.56948 14.5918 3.27269 14.3561 3.03848 14.0641C2.80428 13.7721 2.63865 13.4312 2.55382 13.0665C2.46898 12.7019 2.46712 12.3229 2.54835 11.9575L3.77335 6.44417C4.06864 5.11601 4.79944 3.92468 5.84956 3.05955C6.89969 2.19442 8.20887 1.70515 9.56899 1.66952C10.9291 1.63389 12.2621 2.05394 13.3561 2.8629C14.4501 3.67186 15.2423 4.8233 15.6067 6.13417L17.19 11.8308C17.2946 12.202 17.3113 12.5924 17.2387 12.9711C17.1661 13.3498 17.0062 13.7064 16.7717 14.0125Z" fill="#A0A7A9"/>
</g>
<defs>
<clipPath id="clip0_1_566">
<rect width="20" height="20" fill="white"/>
</clipPath>
</defs>
</svg>
