<svg width="20" height="20" viewBox="0 0 20 20" fill="none" xmlns="http://www.w3.org/2000/svg">
<g clip-path="url(#clip0_2_180)">
<path d="M20 9.37251C19.8794 7.42252 19.1909 5.55043 18.0193 3.98703C16.8477 2.42362 15.2441 1.23725 13.4064 0.574167C11.5687 -0.0889146 9.57705 -0.199718 7.6771 0.255417C5.77715 0.710553 4.05192 1.71173 2.71409 3.13552C1.37626 4.55931 0.484331 6.34348 0.148249 8.26806C-0.187833 10.1926 0.0466277 12.1735 0.822728 13.9664C1.59883 15.7594 2.88264 17.286 4.51589 18.3581C6.14914 19.4303 8.06043 20.001 10.0141 20H15.8333C16.938 19.9989 17.9972 19.5596 18.7784 18.7784C19.5595 17.9972 19.9989 16.9381 20 15.8333V9.37251ZM18.3333 15.8333C18.3333 16.4964 18.0699 17.1323 17.6011 17.6011C17.1322 18.07 16.4963 18.3333 15.8333 18.3333H10.0141C8.83824 18.3328 7.67567 18.0844 6.60221 17.6044C5.52876 17.1244 4.56853 16.4235 3.78413 15.5475C2.99594 14.6719 2.40407 13.6379 2.04821 12.5148C1.69235 11.3918 1.58071 10.2056 1.7208 9.03584C1.94199 7.19079 2.77095 5.47183 4.077 4.14994C5.38304 2.82806 7.09188 1.97843 8.93413 1.735C9.29349 1.68996 9.65529 1.66714 10.0175 1.66667C11.9595 1.66137 13.8415 2.33992 15.3333 3.58334C16.2046 4.30746 16.9197 5.20097 17.4354 6.2097C17.9511 7.21843 18.2566 8.32137 18.3333 9.45167V15.8333Z" fill="#A0A7A9"/>
<path d="M6.66662 7.5H9.99995C10.221 7.5 10.4329 7.4122 10.5892 7.25592C10.7455 7.09964 10.8333 6.88768 10.8333 6.66667C10.8333 6.44565 10.7455 6.23369 10.5892 6.07741C10.4329 5.92113 10.221 5.83334 9.99995 5.83334H6.66662C6.4456 5.83334 6.23364 5.92113 6.07736 6.07741C5.92108 6.23369 5.83328 6.44565 5.83328 6.66667C5.83328 6.88768 5.92108 7.09964 6.07736 7.25592C6.23364 7.4122 6.4456 7.5 6.66662 7.5Z" fill="#A0A7A9"/>
<path d="M13.3333 9.16666H6.66662C6.4456 9.16666 6.23364 9.25446 6.07736 9.41074C5.92108 9.56702 5.83328 9.77898 5.83328 10C5.83328 10.221 5.92108 10.433 6.07736 10.5892C6.23364 10.7455 6.4456 10.8333 6.66662 10.8333H13.3333C13.5543 10.8333 13.7663 10.7455 13.9225 10.5892C14.0788 10.433 14.1666 10.221 14.1666 10C14.1666 9.77898 14.0788 9.56702 13.9225 9.41074C13.7663 9.25446 13.5543 9.16666 13.3333 9.16666Z" fill="#A0A7A9"/>
<path d="M13.3333 12.5H6.66662C6.4456 12.5 6.23364 12.5878 6.07736 12.7441C5.92108 12.9004 5.83328 13.1123 5.83328 13.3333C5.83328 13.5544 5.92108 13.7663 6.07736 13.9226C6.23364 14.0789 6.4456 14.1667 6.66662 14.1667H13.3333C13.5543 14.1667 13.7663 14.0789 13.9225 13.9226C14.0788 13.7663 14.1666 13.5544 14.1666 13.3333C14.1666 13.1123 14.0788 12.9004 13.9225 12.7441C13.7663 12.5878 13.5543 12.5 13.3333 12.5Z" fill="#A0A7A9"/>
</g>
<defs>
<clipPath id="clip0_2_180">
<rect width="20" height="20" fill="white"/>
</clipPath>
</defs>
</svg>
